<?xml version="1.0" encoding="UTF-8"?>
<svg id="Layer_2" data-name="Layer 2" xmlns="http://www.w3.org/2000/svg" xmlns:xlink="http://www.w3.org/1999/xlink" viewBox="0 0 474.21 586">
  <defs>
    <style>
      .cls-1 {
        clip-path: url(#clippath-20);
      }

      .cls-2 {
        clip-path: url(#clippath-11);
      }

      .cls-3 {
        fill: #fff;
      }

      .cls-4 {
        fill: #ea2529;
      }

      .cls-5 {
        stroke: #231f20;
        stroke-width: .8px;
      }

      .cls-5, .cls-6, .cls-7 {
        fill: none;
      }

      .cls-5, .cls-7 {
        stroke-miterlimit: 10;
      }

      .cls-8 {
        clip-path: url(#clippath-2);
      }

      .cls-9 {
        clip-path: url(#clippath-13);
      }

      .cls-10 {
        clip-path: url(#clippath-15);
      }

      .cls-11 {
        clip-path: url(#clippath-6);
      }

      .cls-12 {
        clip-path: url(#clippath-7);
      }

      .cls-13 {
        clip-path: url(#clippath-1);
      }

      .cls-14 {
        clip-path: url(#clippath-4);
      }

      .cls-15 {
        clip-path: url(#clippath-12);
      }

      .cls-16 {
        fill: #0f3820;
      }

      .cls-17 {
        clip-path: url(#clippath-9);
      }

      .cls-18 {
        clip-path: url(#clippath);
      }

      .cls-19 {
        clip-path: url(#clippath-19);
      }

      .cls-20 {
        clip-path: url(#clippath-3);
      }

      .cls-21 {
        clip-path: url(#clippath-8);
      }

      .cls-7 {
        stroke: #fbb040;
        stroke-width: 1.6px;
      }

      .cls-22 {
        fill: #f89522;
      }

      .cls-23 {
        clip-path: url(#clippath-18);
      }

      .cls-24 {
        clip-path: url(#clippath-14);
      }

      .cls-25 {
        clip-path: url(#clippath-17);
      }

      .cls-26 {
        clip-path: url(#clippath-5);
      }

      .cls-27 {
        clip-path: url(#clippath-10);
      }

      .cls-28 {
        fill: #010101;
      }
    </style>
    <clipPath id="clippath">
      <rect class="cls-6" width="474.21" height="586"/>
    </clipPath>
    <clipPath id="clippath-1">
      <rect class="cls-6" width="474.21" height="586"/>
    </clipPath>
    <clipPath id="clippath-2">
      <rect class="cls-6" x="274.15" y="270.33" width="128.43" height="30.58"/>
    </clipPath>
    <clipPath id="clippath-3">
      <rect class="cls-6" x="274.15" y="270.33" width="128.43" height="30.58"/>
    </clipPath>
    <clipPath id="clippath-4">
      <rect class="cls-6" x="274.15" y="270.33" width="128.43" height="30.58"/>
    </clipPath>
    <clipPath id="clippath-5">
      <rect class="cls-6" x="274.15" y="270.33" width="128.43" height="30.58"/>
    </clipPath>
    <clipPath id="clippath-6">
      <rect class="cls-6" x="274.15" y="270.33" width="128.43" height="30.58"/>
    </clipPath>
    <clipPath id="clippath-7">
      <rect class="cls-6" x="274.15" y="270.33" width="128.43" height="30.58"/>
    </clipPath>
    <clipPath id="clippath-8">
      <rect class="cls-6" x="274.15" y="270.33" width="128.43" height="30.58"/>
    </clipPath>
    <clipPath id="clippath-9">
      <rect class="cls-6" x="274.15" y="270.33" width="128.43" height="30.58"/>
    </clipPath>
    <clipPath id="clippath-10">
      <rect class="cls-6" x="274.15" y="270.33" width="128.43" height="30.58"/>
    </clipPath>
    <clipPath id="clippath-11">
      <rect class="cls-6" x="71.63" y="270.27" width="177.93" height="41.66"/>
    </clipPath>
    <clipPath id="clippath-12">
      <rect class="cls-6" x="71.63" y="270.27" width="177.93" height="41.66"/>
    </clipPath>
    <clipPath id="clippath-13">
      <rect class="cls-6" x="71.63" y="270.27" width="177.93" height="41.66"/>
    </clipPath>
    <clipPath id="clippath-14">
      <rect class="cls-6" x="71.63" y="270.27" width="177.93" height="41.66"/>
    </clipPath>
    <clipPath id="clippath-15">
      <rect class="cls-6" x="71.63" y="270.27" width="177.93" height="41.66"/>
    </clipPath>
    <clipPath id="clippath-17">
      <rect class="cls-6" x="71.63" y="270.27" width="177.93" height="41.66"/>
    </clipPath>
    <clipPath id="clippath-18">
      <rect class="cls-6" x="71.63" y="270.27" width="177.93" height="41.66"/>
    </clipPath>
    <clipPath id="clippath-19">
      <rect class="cls-6" x="71.63" y="270.27" width="330.95" height="41.66"/>
    </clipPath>
    <clipPath id="clippath-20">
      <rect class="cls-6" width="474.21" height="586"/>
    </clipPath>
  </defs>
  <g id="Layer_1-2" data-name="Layer 1">
    <g id="basket">
      <g class="cls-18">
        <rect class="cls-3" x=".4" y="63.41" width="473.41" height="522.19"/>
        <g class="cls-13">
          <rect class="cls-5" x=".4" y="63.41" width="473.41" height="522.19"/>
        </g>
        <g class="cls-8">
          <path class="cls-16" d="M400.98,294.54v-24.21h-7.45v.64h1.85v9.68c-.57-1.02-1.66-1.59-3.5-1.59-3.89,0-5.99,2.61-5.99,8.15,0,3.76,.96,6.18,2.68,7.33h-5.1v-10c0-3.95-1.85-5.48-4.65-5.48-2.99,0-3.95,1.72-4.52,3.31v-2.99h-7.2v.64h1.59v14.52h-5.61c1.66-.89,2.42-2.42,2.87-4.2l-.51-.13c-.64,2.55-2.1,4.08-4.33,4.08-2.93,0-3.5-2.61-3.5-6.5v-1.21h8.35c.19-4.97-1.85-7.52-6.56-7.52-4.2,0-7.77,2.48-7.77,8.15,0,3.38,1.21,6.05,3.89,7.33h-4.97l-5.03-11.28,3.57-3.31h2.1v-.64h-5.92v.64h2.74l-6.75,6.12-.45,.19v-15.93h-7.45v.64h1.85v23.57h-5.67c1.66-.89,2.42-2.42,2.87-4.2l-.51-.13c-.64,2.55-2.17,4.08-4.4,4.08-2.93,0-3.57-2.61-3.57-6.5v-1.21h8.54c.19-4.97-1.85-7.52-6.56-7.52-4.2,0-7.77,2.48-7.77,8.15,0,3.38,1.21,6.05,3.89,7.33h-7.96c1.66-.89,2.42-2.42,2.87-4.2l-.51-.13c-.64,2.55-2.17,4.08-4.4,4.08-2.93,0-3.57-2.61-3.57-6.5v-1.21h8.47c.19-4.97-1.85-7.52-6.56-7.52-4.2,0-7.77,2.48-7.77,8.15,0,3.38,1.21,6.05,3.89,7.33h-9.43l5.35-21.91h2.04v-.64h-5.99v.64h2.99l-3.63,15.61-4.46-15.54h1.78v-.64h-9.3v.64h1.72l1.78,6.24-2.48,9.43-4.97-15.67h2.04v-.64h-9.75v.64h1.47l7.58,22.68h119.38v-.76l-1.59-.06Zm-43.45-10.26c0-3.5,.51-4.59,1.59-4.59,1.21,0,1.4,1.15,1.4,4.59v1.66h-2.99v-1.66Zm-33.45,0c0-3.5,.51-4.59,1.59-4.59,1.21,0,1.4,1.15,1.4,4.59v1.66h-2.99v-1.66Zm-15.67,0c0-3.5,.57-4.59,1.66-4.59,1.21,0,1.53,1.15,1.53,4.59v1.66h-3.19v-1.66Zm-22.42,10.26l3.7-14.08,4.2,14.08h-7.9Zm54.85-7.58l.57-.19,3.19,7.77h-3.76v-7.58Zm33.44-1.59c0-2.68,1.21-4.71,2.48-4.71,.76,0,1.15,.32,1.15,3.12v10.83h-3.57l-.06-9.24Zm17.39,1.15c0-4.59,.32-6.5,1.78-6.5,1.34,0,1.97,1.59,1.97,3.38v7.13c0,2.48-1.21,3.38-2.1,3.38-1.27,0-1.66-1.08-1.66-5.73v-1.66Zm3.82,6.18l.26,1.85h-1.53c.57-.45,.96-1.08,1.27-1.85"/>
        </g>
        <polygon class="cls-16" points="335.24 296.77 335.88 296.77 336.64 299.32 337.41 296.77 338.04 296.77 338.04 299.95 337.6 299.95 337.6 297.4 336.83 299.95 336.45 299.95 335.69 297.4 335.69 299.95 335.24 299.95 335.24 296.77"/>
        <g class="cls-20">
          <path class="cls-16" d="M339.51,300.02c-.13,0-.26,0-.32-.06-.13,0-.19-.06-.25-.13-.06-.06-.13-.19-.19-.26-.06-.06-.06-.26-.06-.38,0-.19,0-.32,.06-.45,.06-.13,.13-.19,.19-.25,.06-.06,.19-.13,.25-.19s.19-.06,.32-.13c.13,0,.25-.06,.32-.06,.13,0,.19,0,.26-.06,.06,0,.13-.06,.19-.13,.06-.06,.06-.13,.06-.19,0-.13,0-.19-.06-.26-.06-.06-.06-.13-.13-.13-.06-.06-.13-.06-.19-.06h-.19c-.19,0-.32,.06-.45,.13-.13,.06-.19,.26-.19,.51h-.45c0-.19,.06-.38,.13-.51,.06-.13,.13-.25,.26-.32,.13-.06,.19-.13,.32-.19,.13-.06,.26-.06,.45-.06h.32c.13,0,.19,.06,.32,.13,.13,.06,.19,.13,.19,.25,.06,.13,.06,.26,.06,.45v1.91c0,.06,.06,.06,.13,.06h.13v.38c-.06,.06-.19,.06-.32,.06s-.19-.06-.26-.13-.13-.19-.13-.38c-.13,.19-.26,.32-.38,.38,0,0-.19,.06-.38,.06m.13-.45c.13,0,.26,0,.38-.06,.13-.06,.19-.13,.26-.19,.06-.06,.13-.13,.13-.25s.06-.19,.06-.26v-.51c-.06,.06-.13,.06-.19,.13-.06,0-.19,.06-.26,.06-.13,0-.19,0-.32,.06-.13,.06-.19,.06-.26,.06s-.13,.13-.19,.19c-.06,.06-.06,.19-.06,.32,0,.06,0,.13,.06,.19,.06,.06,.06,.13,.13,.13s.13,.06,.13,.06c0,.06,.06,.06,.13,.06"/>
        </g>
        <polygon class="cls-16" points="341.61 296.77 343.4 296.77 343.4 297.21 342.06 297.21 342.06 299.95 341.61 299.95 341.61 296.77"/>
        <g class="cls-14">
          <path class="cls-16" d="M344.61,300.02c-.13,0-.25,0-.32-.06-.13,0-.19-.06-.26-.13-.06-.06-.13-.19-.19-.26-.06-.06-.06-.26-.06-.38,0-.19,0-.32,.06-.45,.06-.13,.13-.19,.19-.25s.19-.13,.26-.19c.06-.06,.19-.06,.32-.13,.13,0,.26-.06,.32-.06,.13,0,.19,0,.25-.06,.06,0,.13-.06,.19-.13,.06-.06,.06-.13,.06-.19,0-.13,0-.19-.06-.26-.06-.06-.06-.13-.13-.13-.06-.06-.13-.06-.19-.06h-.19c-.19,0-.32,.06-.45,.13-.13,.06-.19,.26-.19,.51h-.45c0-.19,.06-.38,.13-.51,.06-.13,.13-.25,.26-.32,.13-.06,.19-.13,.32-.19,.13-.06,.26-.06,.45-.06h.32c.13,0,.19,.06,.32,.13,.13,.06,.19,.13,.19,.25,.06,.13,.06,.26,.06,.45v1.91c0,.06,.06,.06,.13,.06h.13v.38c-.06,.06-.19,.06-.32,.06s-.19-.06-.25-.13c-.06-.06-.13-.19-.13-.38-.13,.19-.25,.32-.38,.38-.06,0-.19,.06-.38,.06m.06-.45c.13,0,.26,0,.38-.06,.13-.06,.19-.13,.26-.19,.06-.06,.13-.13,.13-.25s.06-.19,.06-.26v-.51c-.06,.06-.13,.06-.19,.13-.06,0-.19,.06-.26,.06-.13,0-.19,0-.32,.06-.13,.06-.19,.06-.26,.06s-.13,.13-.19,.19c-.06,.06-.06,.19-.06,.32,0,.06,0,.13,.06,.19,0,.06,.06,.13,.13,.13s.13,.06,.13,.06c0,.06,.06,.06,.13,.06"/>
          <path class="cls-16" d="M347.6,300.02c-.32,0-.64-.13-.83-.32s-.32-.45-.32-.83h.45c0,.26,.06,.38,.19,.51,.13,.13,.32,.13,.51,.13s.38-.06,.45-.13c.06-.06,.19-.25,.19-.38s-.06-.32-.13-.38c-.06-.06-.19-.13-.45-.13h-.32v-.45h.26c.13,0,.26-.06,.38-.13,.13-.06,.13-.19,.13-.38,0-.13-.06-.19-.13-.32-.06-.06-.26-.13-.38-.13h-.26c-.06,0-.13,.06-.19,.13-.06,.06-.13,.13-.13,.19-.06,.06-.06,.19-.06,.25h-.45c0-.19,.06-.38,.13-.51,.06-.13,.13-.26,.26-.32,.13-.06,.19-.13,.32-.19,.13,0,.26-.06,.38-.06s.26,0,.38,.06c.13,0,.19,.06,.32,.13,.06,.06,.13,.13,.19,.26,.06,.13,.06,.25,.06,.38,0,.19-.06,.32-.13,.45-.06,.13-.19,.19-.32,.19,.06,0,.13,.06,.19,.06s.13,.06,.13,.13,.06,.13,.13,.26c.06,.13,.06,.19,.06,.32,0,.19,0,.32-.06,.45-.06,.13-.13,.26-.26,.32-.13,.06-.19,.13-.32,.19-.06,.26-.19,.26-.38,.26"/>
        </g>
        <polygon class="cls-16" points="349.32 296.77 349.77 296.77 349.77 299.38 350.98 296.77 351.55 296.77 351.55 299.95 351.1 299.95 351.1 297.34 349.89 299.95 349.32 299.95 349.32 296.77"/>
        <polygon class="cls-16" points="352.31 296.77 352.7 296.77 352.7 298.04 354.03 298.04 354.03 296.77 354.48 296.77 354.48 299.95 354.03 299.95 354.03 298.49 352.7 298.49 352.7 299.95 352.31 299.95 352.31 296.77"/>
        <g class="cls-26">
          <path class="cls-16" d="M355.24,296.77h.45v1.21h.83c.26,0,.45,.06,.64,.25s.25,.38,.25,.7-.06,.51-.19,.7c-.13,.19-.32,.26-.57,.26h-1.27v-3.12h-.13Zm1.08,2.74c.38,0,.51-.19,.51-.51s-.19-.51-.51-.51h-.64v1.08l.64-.06Zm1.4-2.74h.45v3.19h-.45v-3.19Z"/>
        </g>
        <polygon class="cls-16" points="360.4 296.77 361.04 296.77 361.81 299.32 362.57 296.77 363.21 296.77 363.21 299.95 362.76 299.95 362.76 297.4 362 299.95 361.62 299.95 360.85 297.4 360.85 299.95 360.4 299.95 360.4 296.77"/>
        <g class="cls-11">
          <path class="cls-16" d="M364.23,301.23h-.13s-.13,0-.13-.06v-.51q.06,0,.13,.06h.13c.06,0,.13,0,.19-.06,.06-.06,.13-.13,.13-.19l.19-.51-1.02-3.19h.51l.76,2.61,.7-2.61h.45l-1.15,3.63c-.06,.13-.13,.32-.13,.38s-.13,.19-.13,.26-.13,.13-.19,.13c-.13,.06-.19,.06-.32,.06"/>
        </g>
        <polygon class="cls-16" points="367.41 298.04 366.39 296.77 366.97 296.77 368.05 298.23 368.05 296.77 368.43 296.77 368.43 298.23 369.51 296.77 370.02 296.77 369.07 298.04 370.21 299.95 369.64 299.95 368.75 298.42 368.43 298.81 368.43 299.95 368.05 299.95 368.05 298.81 367.67 298.42 366.77 299.95 366.27 299.95 367.41 298.04"/>
        <g class="cls-12">
          <path class="cls-16" d="M371.68,300.02c-.19,0-.38-.06-.51-.13-.13-.06-.26-.19-.38-.32-.13-.13-.19-.32-.26-.51-.06-.19-.06-.45-.06-.64s0-.45,.06-.64c.06-.19,.13-.38,.26-.51l.38-.38c.13-.13,.32-.13,.51-.13,.13,0,.26,0,.45,.06,.13,.06,.25,.13,.32,.19,.06,.06,.19,.19,.26,.32,.06,.13,.13,.32,.13,.51h-.45c-.06-.19-.13-.38-.19-.45-.13-.13-.25-.19-.45-.19-.13,0-.26,0-.38,.13-.13,.06-.19,.19-.26,.26-.06,.06-.13,.25-.13,.38s-.06,.32-.06,.45,0,.32,.06,.45c0,.13,.06,.26,.13,.38,.06,.13,.13,.19,.26,.26,.13,.06,.19,.13,.38,.13s.38-.06,.51-.19,.19-.32,.19-.57h.45c-.06,.38-.19,.7-.38,.89-.19,.13-.45,.26-.83,.26"/>
        </g>
        <polygon class="cls-16" points="373.46 296.77 373.85 296.77 373.85 298.3 375.06 296.77 375.63 296.77 374.61 298.04 375.76 299.95 375.25 299.95 374.29 298.36 373.85 298.87 373.85 299.95 373.46 299.95 373.46 296.77"/>
        <g class="cls-21">
          <path class="cls-16" d="M377.29,300.02c-.19,0-.38-.06-.51-.13-.13-.06-.26-.19-.38-.32-.13-.13-.19-.32-.26-.51-.06-.19-.06-.45-.06-.64,0-.26,0-.45,.06-.64,.06-.19,.13-.38,.26-.51l.38-.38c.13-.06,.32-.13,.51-.13s.38,.06,.51,.13c.13,.06,.26,.19,.38,.38,.13,.19,.19,.32,.26,.51,.06,.19,.06,.45,.06,.64,0,.26,0,.45-.06,.64-.06,.19-.13,.38-.26,.51-.13,.13-.25,.26-.38,.32-.13,.06-.25,.13-.51,.13m0-.45c.13,0,.19,0,.32-.06,.13-.06,.19-.13,.26-.25,.06-.13,.13-.26,.19-.38,.06-.13,.06-.32,.06-.51s0-.38-.06-.51c-.06-.13-.13-.26-.19-.38-.06-.13-.13-.19-.26-.26-.13-.06-.19-.06-.32-.06s-.19,0-.32,.06c-.13,.06-.19,.13-.26,.26-.06,.13-.13,.26-.19,.38-.06,.13-.06,.32-.06,.51s0,.38,.06,.51c.06,.13,.13,.25,.19,.38,.06,.13,.13,.19,.26,.25,.13,0,.25,.06,.32,.06"/>
        </g>
        <polygon class="cls-16" points="379.2 296.77 379.64 296.77 379.64 299.38 380.85 296.77 381.36 296.77 381.36 299.95 380.98 299.95 380.98 297.34 379.77 299.95 379.2 299.95 379.2 296.77"/>
        <g class="cls-17">
          <path class="cls-16" d="M384.8,300.02c-.19,0-.38-.06-.51-.13-.13-.06-.26-.19-.38-.32-.13-.13-.19-.32-.26-.51-.06-.19-.06-.45-.06-.64,0-.26,0-.45,.06-.64,.06-.19,.13-.38,.26-.51,.13-.13,.25-.26,.38-.38,.13-.06,.32-.13,.51-.13s.38,.06,.51,.13c.13,.06,.26,.19,.38,.38,.13,.19,.19,.32,.26,.51,.06,.19,.06,.45,.06,.64,0,.26,0,.45-.06,.64-.06,.19-.13,.38-.26,.51-.13,.13-.25,.26-.38,.32-.13,.06-.32,.13-.51,.13m0-.45c.13,0,.19,0,.32-.06,.13-.06,.19-.13,.26-.25,.06-.13,.13-.26,.19-.38,.06-.13,.06-.32,.06-.51s0-.38-.06-.51c-.06-.13-.13-.26-.19-.38-.06-.13-.13-.19-.26-.26-.13-.06-.19-.06-.32-.06s-.19,0-.32,.06c-.13,.06-.19,.13-.26,.26-.06,.13-.13,.26-.19,.38-.06,.13-.06,.32-.06,.51s0,.38,.06,.51c.06,.13,.13,.25,.19,.38,.06,.13,.13,.19,.26,.25,.06,0,.19,.06,.32,.06"/>
          <path class="cls-16" d="M386.4,299.51h.32c.06-.06,.06-.19,.13-.38,.06-.19,.06-.32,.13-.51,.06-.19,.06-.38,.06-.57s.06-.38,.06-.64v-.7h1.85v2.74h.38v1.4h-.38v-.96h-2.04v.96h-.38l-.13-1.34Zm2.04,0v-2.29h-1.02v.83c0,.19-.06,.38-.06,.57s-.06,.32-.13,.51c-.06,.19-.06,.26-.13,.32l1.34,.06Z"/>
          <path class="cls-16" d="M390.86,300.02c-.19,0-.38-.06-.51-.13-.13-.06-.25-.19-.38-.32-.13-.13-.19-.32-.25-.51-.06-.19-.06-.45-.06-.7s.06-.45,.06-.64,.13-.38,.25-.51c.13-.13,.26-.25,.38-.32,.13-.06,.32-.13,.51-.13,.25,0,.45,.06,.57,.19,.13,.13,.25,.25,.38,.45,.06,.19,.13,.38,.19,.57,.06,.19,.06,.45,.06,.64h-1.91c0,.13,0,.26,.06,.38,.06,.13,.06,.26,.13,.32,.06,.13,.13,.19,.26,.26,.13,.06,.19,.06,.38,.06s.32-.06,.45-.13c.13-.13,.19-.25,.25-.45h.45c-.06,.38-.19,.64-.38,.83-.38,.06-.64,.13-.89,.13m.7-1.98c0-.13-.06-.26-.06-.32-.06-.13-.06-.19-.13-.32-.06-.13-.13-.13-.26-.19-.13-.06-.19-.06-.32-.06s-.19,0-.32,.06c-.13,.06-.19,.13-.26,.19-.06,.06-.13,.19-.13,.32-.06,.13-.06,.19-.06,.32h1.53Z"/>
        </g>
        <polygon class="cls-16" points="393.34 298.04 392.38 296.77 392.89 296.77 393.98 298.23 393.98 296.77 394.42 296.77 394.42 298.23 395.51 296.77 396.02 296.77 395 298.04 396.14 299.95 395.63 299.95 394.74 298.42 394.42 298.81 394.42 299.95 393.98 299.95 393.98 298.81 393.66 298.42 392.77 299.95 392.26 299.95 393.34 298.04"/>
        <g class="cls-27">
          <path class="cls-16" d="M396.27,299.51h.32c.06-.06,.06-.19,.13-.38,.06-.19,.06-.32,.13-.51,.06-.19,.06-.38,.06-.57s.06-.38,.06-.64v-.7h1.85v2.74h.38v1.4h-.38v-.96h-2.04v.96h-.38l-.13-1.34Zm2.1,0v-2.29h-1.02v.83c0,.19-.06,.38-.06,.57-.06,.19-.06,.32-.13,.51-.06,.19-.06,.26-.13,.32l1.34,.06Z"/>
          <path class="cls-16" d="M399.65,296.77h.45v1.21h.83c.26,0,.45,.06,.64,.25,.19,.19,.26,.38,.26,.7s-.06,.51-.19,.7c-.13,.19-.32,.26-.57,.26h-1.27l-.13-3.12Zm1.08,2.74c.38,0,.51-.19,.51-.51s-.19-.51-.51-.51h-.64v1.08l.64-.06Zm1.4-2.74h.45v3.19h-.45v-3.19Z"/>
        </g>
        <rect class="cls-22" x="147.82" y="301.1" width="99" height="10.57"/>
        <path class="cls-28" d="M114.5,287.47h6.88l-3.25-9.24-3.63,9.24Zm7.84,8.66v-.51h2.04l-2.8-7.77h-7.2l-2.99,7.77h2.99v.51h-6.24v-.51h2.29l7.26-18.73-.7-2.04h2.87l2.93,8.15,4.46,12.61h1.4v.51h-6.31Z"/>
        <g class="cls-2">
          <path class="cls-4" d="M78.26,271.92s-.96,.7-1.47,1.53c-.51,.76-.57,1.66-.38,1.91,.25,.38,.06,.64,.06,.64h-.19v-2.87s.19-.32,.83-.83c.45-.38,1.15-.38,1.15-.38"/>
        </g>
        <g class="cls-15">
          <path class="cls-4" d="M79.47,281.29c.57,1.59,1.02,3.82,.19,6.37-1.08,3.31-3.19,4.91-3.19,4.91v3.63h-.38v-14.52s-2.1-1.59-3.19-4.91c-.83-2.55-.38-4.84,.19-6.43-.13,.51-1.47,5.67,3.19,8.35,4.65-2.74,3.31-7.9,3.19-8.35,.64,1.66,1.08,3.89,.19,6.43-1.08,3.31-3.19,4.91-3.19,4.91v7.77c4.2-2.61,3.25-7.33,2.99-8.15"/>
        </g>
        <g class="cls-9">
          <path class="cls-4" d="M74.31,271.92s.96,.7,1.47,1.53c.45,.76,.51,1.66,.32,1.91-.19,.45,0,.64,0,.64h.19v-2.87s-.19-.32-.83-.83c-.51-.38-1.15-.38-1.15-.38"/>
        </g>
        <g class="cls-24">
          <path class="cls-28" d="M96.35,275.36v-.51c-3.76,.13-10.26,1.21-10.26,8.79s6.5,8.66,10.26,8.79v-.51c-5.1-.38-6.69-3.5-6.69-8.28s1.66-7.9,6.69-8.28m3.12-.51v.51c5.1,.38,6.75,3.5,6.75,8.28s-1.66,7.9-6.75,8.28v.51c3.76-.13,10.26-1.21,10.26-8.79s-6.5-8.66-10.26-8.79"/>
        </g>
        <polygon class="cls-28" points="93.99 270.27 93.99 270.71 96.35 270.71 96.35 295.68 93.23 295.68 93.23 296.13 102.59 296.13 102.59 295.68 99.47 295.68 99.47 270.71 101.83 270.71 101.83 270.27 93.99 270.27"/>
        <g class="cls-10">
          <path class="cls-28" d="M147.63,295.62v.51h-6.24v-.51h1.59q0-.06,.06-.13v-9.87h-7.71v10h1.59v.51h-6.24v-.51h1.66v-20.26h-1.27v-.45h5.48v.45h-1.21v9.75h7.71v-9.75h-1.27v-.45h5.48v.45h-1.27v20.26h1.66Z"/>
        </g>
        <path class="cls-28" d="M193.05,295.62l-4.46-12.61-2.93-8.15h-2.87l.7,2.04-7.26,18.73h-2.29v.51h6.24v-.51h-2.99l2.99-7.77h7.2l2.8,7.77h-2.04v.51h6.24v-.51h-1.34Zm-12.68-8.15l3.57-9.24,3.31,9.24h-6.88Z"/>
        <g class="cls-25">
          <path class="cls-28" d="M162.22,275.36v-.51c-3.76,.13-10.26,1.21-10.26,8.79s6.5,8.66,10.26,8.79v-.51c-5.1-.38-6.69-3.5-6.69-8.28s1.59-7.9,6.69-8.28m3.06-.51v.51c5.1,.38,6.75,3.5,6.75,8.28s-1.66,7.9-6.75,8.28v.51c3.76-.13,10.26-1.21,10.26-8.79,.06-7.52-6.5-8.66-10.26-8.79"/>
        </g>
        <polygon class="cls-28" points="159.86 270.27 159.86 270.71 162.22 270.71 162.22 295.68 159.03 295.68 159.03 296.13 168.46 296.13 168.46 295.68 165.28 295.68 165.28 270.71 167.7 270.71 167.7 270.27 159.86 270.27"/>
        <g class="cls-23">
          <path class="cls-28" d="M213.5,295.62v.51h-6.24v-.51h1.59q0-.06,.06-.13v-9.87h-7.71v10h1.59v.51h-6.31v-.51h1.66v-20.26h-1.27v-.45h5.48v.45h-1.21v9.75h7.71v-9.75h-1.27v-.45h5.48v.45h-1.27v20.26h1.72Z"/>
          <path class="cls-3" d="M159.35,307.92c0-.13,.06-.25,.13-.32,.06-.06,.19-.13,.32-.13s.25,.06,.32,.13,.13,.19,.13,.32-.06,.26-.13,.32c-.06,.06-.19,.13-.32,.13s-.26-.06-.32-.13c-.06-.06-.13-.13-.13-.32m2.48,0c0-.13,.06-.25,.13-.32,.06-.06,.19-.13,.32-.13s.25,.06,.32,.13,.13,.19,.13,.32-.06,.26-.13,.32c-.06,.06-.19,.13-.32,.13s-.26-.06-.32-.13c-.06-.06-.13-.13-.13-.32m2.48,0c0-.13,.06-.25,.13-.32s.19-.13,.32-.13,.26,.06,.32,.13c.06,.06,.13,.19,.13,.32s-.06,.26-.13,.32c-.06,.06-.19,.13-.32,.13s-.25-.06-.32-.13c-.13-.06-.13-.13-.13-.32m6.24-2.1v-.51l-.32,.51-1.66,2.48h-.32v-4.2h.57v3.06l.32-.51,1.66-2.55h.32v4.2h-.57v-2.48Zm2.48,.64v-.57h.51c.06,0,.19,0,.26-.06,.06,0,.19-.06,.25-.13,.06-.06,.13-.13,.19-.19,.06-.06,.06-.19,.06-.26,0-.19-.06-.38-.19-.45-.13-.06-.32-.13-.57-.13-.19,0-.38,0-.51,.13-.19,.06-.32,.13-.38,.19l-.19-.51c.13-.13,.32-.19,.51-.26,.19-.06,.45-.13,.7-.13,.83,0,1.27,.32,1.27,1.02,0,.19-.06,.38-.19,.57-.13,.19-.26,.32-.51,.38,.32,.06,.51,.19,.64,.32,.13,.19,.19,.38,.19,.7,0,.19-.06,.32-.13,.51-.06,.13-.19,.26-.32,.38-.13,.13-.32,.19-.51,.26-.19,.06-.45,.13-.7,.13s-.45,0-.64-.06c-.19-.06-.32-.13-.45-.19l.19-.57c.13,.06,.26,.13,.45,.19,.19,.06,.32,.06,.51,.06,.32,0,.51-.06,.7-.19,.19-.13,.25-.32,.25-.51s-.06-.38-.19-.51-.38-.19-.76-.19l-.45,.06Zm5.73,1.85v-4.2h.57v3.63h1.27v-3.63h.57v3.63h1.27v-3.63h.57v4.2h-4.27Zm5.61-2.1c0-.7,.13-1.27,.45-1.66,.26-.38,.7-.57,1.21-.57,.26,0,.51,.06,.7,.13,.19,.13,.38,.25,.51,.45,.13,.19,.25,.45,.32,.7,.06,.26,.13,.57,.13,.89,0,.7-.13,1.27-.45,1.66-.26,.38-.7,.57-1.21,.57-.26,0-.51-.06-.7-.13-.19-.13-.38-.26-.51-.45-.13-.19-.25-.45-.32-.7-.06-.26-.13-.57-.13-.89m1.66-1.59c-.7,0-1.02,.51-1.02,1.59,0,.19,0,.45,.06,.64,.06,.19,.13,.38,.19,.51,.06,.13,.19,.26,.32,.32,.13,.06,.32,.13,.51,.13,.7,0,1.02-.51,1.02-1.59,0-.19,0-.45-.06-.64-.06-.19-.13-.38-.19-.51-.06-.13-.19-.25-.32-.32-.13-.06-.32-.13-.51-.13m3.95,2.23l.19,.83h.06l.19-.83,.7-2.74h.57l-1.08,3.76c-.06,.25-.19,.57-.26,.83-.06,.26-.19,.51-.25,.7-.06,.19-.19,.38-.32,.51-.13,.13-.25,.19-.45,.19s-.32,0-.45-.06l.13-.57c.06,0,.13,.06,.19,.06,.13,0,.26-.06,.38-.26,.13-.19,.26-.45,.32-.83l-1.53-4.2h.7l.89,2.61Zm2.8-2.74h.45l.13,.51c.13-.19,.26-.32,.45-.45s.38-.13,.64-.13c.51,0,.89,.19,1.15,.51,.25,.32,.38,.89,.38,1.66,0,.32-.06,.7-.13,.96-.06,.26-.19,.51-.32,.7-.13,.19-.32,.32-.51,.45-.19,.13-.45,.13-.7,.13-.19,0-.32,0-.45-.06-.13,0-.19-.06-.32-.13v1.78h-.57l-.19-5.92Zm1.47,.51c-.26,0-.45,.06-.57,.19-.13,.13-.26,.38-.32,.7v2.1c.06,.06,.19,.13,.32,.19,.13,.06,.25,.06,.45,.06,.32,0,.64-.13,.83-.45,.19-.32,.32-.7,.32-1.27,0-.19,0-.45-.06-.64-.06-.19-.06-.32-.19-.51-.13-.19-.19-.26-.32-.32-.06-.06-.25-.06-.45-.06m3.95,2.23l.19,.83h.06l.19-.83,.7-2.74h.57l-1.08,3.76c-.06,.25-.19,.57-.25,.83-.06,.26-.19,.51-.26,.7-.06,.19-.19,.38-.32,.51-.13,.13-.26,.19-.45,.19s-.32,0-.45-.06l.13-.57c.06,0,.13,.06,.19,.06,.13,0,.25-.06,.38-.26,.13-.19,.25-.45,.32-.83l-1.53-4.2h.7l.89,2.61Zm5.8-1.02l.06-.83h-.06l-.25,.64-.89,1.66h-.19l-.96-1.66-.25-.64,.06,.76v2.55h-.57v-4.2h.57l1.02,1.91,.19,.51,.19-.51,.96-1.85h.57v4.2h-.57l.13-2.55Zm1.91,.38c0-.7,.13-1.27,.45-1.66,.25-.38,.7-.57,1.21-.57,.26,0,.51,.06,.7,.13,.19,.13,.38,.25,.51,.45,.13,.19,.26,.45,.32,.7,.06,.26,.13,.57,.13,.89,0,.7-.13,1.27-.45,1.66-.26,.38-.7,.57-1.21,.57-.25,0-.51-.06-.7-.13-.19-.13-.38-.26-.51-.45-.13-.19-.26-.45-.32-.7-.06-.26-.13-.57-.13-.89m1.66-1.59c-.7,0-1.02,.51-1.02,1.59,0,.19,0,.45,.06,.64,.06,.19,.13,.38,.19,.51,.06,.13,.19,.26,.32,.32,.13,.06,.32,.13,.51,.13,.7,0,1.02-.51,1.02-1.59,0-.19,0-.45-.06-.64-.06-.19-.13-.38-.19-.51-.06-.13-.19-.25-.32-.32-.19-.13-.32-.13-.51-.13m2.93-.51c.19,0,.38,0,.57-.06,.19-.06,.45,0,.7,0,.51,0,.83,.06,1.08,.25,.19,.19,.32,.45,.32,.76,0,.19-.06,.38-.13,.57-.06,.19-.25,.32-.51,.45,.32,.06,.51,.19,.64,.32,.13,.19,.19,.38,.19,.7,0,.45-.13,.76-.45,.96-.32,.19-.7,.32-1.27,.32h-.57c-.19,0-.32,0-.51-.06l-.06-4.2Zm1.34,1.78c.06,0,.19,0,.25-.06,.06,0,.19-.06,.19-.13l.19-.19c.06-.06,.06-.19,.06-.26,0-.19-.06-.38-.19-.45-.13-.06-.32-.13-.64-.13h-.64v1.21h.76Zm-.7,1.91h.57c.32,0,.57-.06,.76-.13,.19-.13,.26-.32,.26-.57,0-.19-.06-.38-.19-.51-.13-.13-.38-.19-.7-.19h-.64l-.06,1.4Zm9.94-3.44l.06-.89h-.06l-.32,.83-1.34,2.68h-.19l-1.47-2.68-.26-.83,.13,.89v3.95h-.57v-5.92h.45l1.66,2.99,.26,.64,.19-.7,1.59-2.99h.51v5.92h-.64v-3.89Zm4.52,1.47v-.51l-.32,.51-1.66,2.48h-.32v-4.2h.57v3.06l.32-.51,1.66-2.55h.32v4.2h-.57v-2.48Zm4.14-1.15h-1.08c0,.26,0,.51-.06,.76,0,.26-.06,.57-.06,.83s-.06,.51-.13,.76c-.06,.26-.13,.45-.19,.64-.06,.19-.19,.32-.32,.45-.13,.13-.26,.19-.38,.19h-.26c-.06,0-.13,0-.19-.06l.06-.57h.19c.13,0,.19-.06,.26-.13,.06-.13,.13-.25,.19-.57,.06-.25,.13-.64,.13-1.15,.06-.51,.06-1.08,.06-1.85h2.23v4.2h-.57l.13-3.5Zm2.04-.25c.19-.13,.45-.19,.64-.26,.26-.06,.51-.13,.76-.13s.45,.06,.64,.13c.13,.06,.25,.19,.38,.32s.13,.25,.19,.45c0,.13,.06,.32,.06,.45v2.42c0,.19,.06,.32,.06,.51h-.45l-.19-.57h-.06c-.06,.06-.13,.13-.19,.19-.06,.06-.13,.13-.26,.19-.13,.06-.19,.13-.32,.13-.13,.06-.26,.06-.45,.06s-.32,0-.45-.06c-.13-.06-.25-.13-.32-.26-.13-.13-.19-.19-.26-.38-.06-.13-.06-.32-.06-.51,0-.26,.06-.45,.13-.64,.06-.19,.19-.32,.38-.38,.19-.13,.32-.19,.57-.19,.19-.06,.51-.06,.76-.06h.38v-.45c0-.32-.06-.51-.19-.64s-.32-.19-.57-.19h-.26c-.06,0-.19,0-.32,.06-.13,.06-.19,.06-.32,.13-.06,.06-.19,.06-.26,.13l-.06-.45Zm1.08,3.38c.13,0,.25,0,.38-.06,.13-.06,.19-.13,.32-.13,.06-.06,.13-.13,.19-.19s.06-.13,.13-.19v-.7h-.83c-.13,0-.26,.06-.38,.13-.13,.06-.19,.13-.26,.19-.06,.13-.13,.19-.13,.32,0,.19,.06,.32,.19,.51,0,.06,.19,.13,.38,.13m5.35-1.34h-1.72v1.85h-.57v-4.2h.57v1.78h1.72v-1.78h.57v4.2h-.57v-1.85Zm2.1-2.04c.19-.13,.45-.19,.64-.26,.26-.06,.51-.13,.76-.13s.45,.06,.64,.13c.19,.06,.25,.19,.38,.32,.13,.13,.13,.25,.19,.45,0,.13,.06,.32,.06,.45v2.42c0,.19,.06,.32,.06,.51h-.45l-.19-.57h-.06l-.19,.19c-.06,.06-.13,.13-.26,.19-.13,.06-.19,.13-.32,.13-.13,.06-.26,.06-.45,.06s-.32,0-.45-.06c-.13-.06-.25-.13-.32-.26-.13-.13-.19-.19-.26-.38-.06-.13-.06-.32-.06-.51,0-.26,.06-.45,.13-.64,.06-.19,.19-.32,.38-.38,.19-.13,.32-.19,.57-.19,.19-.06,.51-.06,.76-.06h.38v-.45c0-.32-.06-.51-.19-.64s-.32-.19-.57-.19h-.26c-.13,0-.19,0-.32,.06-.13,0-.19,.06-.32,.13-.06,.06-.19,.06-.26,.13l-.06-.45Zm1.02,3.38c.13,0,.26,0,.38-.06,.13-.06,.19-.13,.32-.13,.06-.06,.13-.13,.19-.19,.06-.06,.06-.13,.13-.19v-.7h-.83c-.13,0-.26,.06-.38,.13-.13,.06-.19,.13-.26,.19-.06,.13-.13,.19-.13,.32,0,.19,.06,.32,.19,.51,.06,.06,.19,.13,.38,.13"/>
        </g>
        <g class="cls-19">
          <path d="M258.67,280.78c-2.48,.32-2.93,.96-4.14,2.68-.96,1.34-1.91,2.8-3.19,4.71,1.53,1.47,5.03,5.35,6.05,7.07l-.19,.38c-1.98-.19-3.95-1.02-4.4-1.47-.45-.51-2.17-2.17-3.31-3.38-2.61,3.44-4.97,4.65-7.52,4.65-4.59,0-7.13-3.38-7.13-6.5,.06-3.31,1.91-4.65,5.35-6.82-1.72-1.47-2.8-3.12-2.8-5.1,.06-3.19,2.74-5.67,5.92-5.67,2.99,0,5.35,2.04,5.35,4.91-.06,1.47-.76,2.55-1.53,3.19-.7,.51-1.78,1.21-3.06,1.98,1.15,1.02,4.14,3.44,6.37,5.67,.83-1.27,1.53-2.48,2.23-4.08,.7-1.66,.38-2.1-2.23-2.42v-1.02h8.22v1.21Zm-15.8,12.23c2.48,0,3.89-.76,5.73-3.19-1.85-2.1-4.33-4.2-7.45-6.82-2.55,1.66-3.25,3.19-3.25,5.03,.06,3.38,2.68,4.97,4.97,4.97m.13-20.32c-1.78,0-2.87,1.4-2.87,3.5,0,1.85,.96,2.93,3.06,4.65,1.98-1.4,2.87-2.55,2.87-4.4-.06-2.04-1.08-3.76-3.06-3.76"/>
        </g>
        <g class="cls-1">
          <path class="cls-7" d="M70.21,58.38c10.07-10.31,31.36-28.79,69.59-42.12,57.27-19.97,129.39-20.33,186.99-2.53,41.76,12.91,65.63,32.2,77.21,43.39"/>
        </g>
      </g>
    </g>
  </g>
</svg>