<?xml version="1.0" encoding="UTF-8"?>
<svg id="Layer_2" data-name="Layer 2" xmlns="http://www.w3.org/2000/svg" viewBox="0 0 25.32 82.38">
  <defs>
    <style>
      .cls-1 {
        fill: #eb2227;
      }
    </style>
  </defs>
  <g id="Layer_1-2" data-name="Layer 1">
    <g>
      <path class="cls-1" d="M23.96,0c1.57,7.73,2.35,15.35-.87,23.01-1.4,3.31-2.71,6.85-5.28,9.06-3.66,3.15-4.03,6.73-3.87,10.95,.18,4.91,.04,9.83,.04,14.85,7.51-3.82,10.5-12.51,8.76-23.9,3.12,7.47,3.4,15.1,.44,22.72-1.39,3.58-2.83,7.28-5.9,9.93-4.93,4.26-2.65,10.28-3.57,15.78-2.63-1.06-1.68-2.96-1.69-4.33-.08-12.03-.42-24.08,.14-36.09,.21-4.49-2.25-7.02-4.45-9.76C-.16,22.42-1.88,11.75,1.98,0h1c1.5,1.57,.73,3.39,.62,5.17-.38,6.22,1.52,11.65,5.71,16.35,2.22,2.49,4.14,2.76,6.49,.08,3.51-3.99,5.87-8.3,5.91-13.76,.02-2.6-.73-5.25,.25-7.83h2Z"/>
      <path class="cls-1" d="M6.38,4.91c4.38,3.05,8.8,1.09,13.29,.23-3.78,3.25-7.1,6.35-5.74,11.77,.17,.68,.23,1.86-1.01,1.76-1.03-.09-2.16-1.01-1.77-1.93,2.28-5.38-2.09-7.86-4.76-11.82Z"/>
    </g>
  </g>
</svg>