<?xml version="1.0" encoding="UTF-8"?>
<svg id="Layer_2" data-name="Layer 2" xmlns="http://www.w3.org/2000/svg" viewBox="0 0 300.56 238.33">
  <defs>
    <style>
      .cls-1 {
        fill: none;
        stroke: #e7ffc0;
        stroke-miterlimit: 10;
        stroke-width: 11px;
      }

      .cls-2 {
        fill: #e7ffc0;
      }
    </style>
  </defs>
  <g id="Layer_1-2" data-name="Layer 1">
    <g>
      <g>
        <path class="cls-2" d="M91.95,183.75c12.01,0,21.79,9.77,21.79,21.79s-9.77,21.79-21.79,21.79-21.79-9.77-21.79-21.79,9.77-21.79,21.79-21.79m0-11c-18.11,0-32.79,14.68-32.79,32.79s14.68,32.79,32.79,32.79,32.79-14.68,32.79-32.79-14.68-32.79-32.79-32.79h0Z"/>
        <path class="cls-2" d="M208.61,183.75c12.01,0,21.79,9.77,21.79,21.79s-9.77,21.79-21.79,21.79-21.79-9.77-21.79-21.79,9.77-21.79,21.79-21.79m0-11c-18.11,0-32.79,14.68-32.79,32.79s14.68,32.79,32.79,32.79,32.79-14.68,32.79-32.79-14.68-32.79-32.79-32.79h0Z"/>
      </g>
      <line class="cls-1" y1="136.54" x2="300.56" y2="136.54"/>
      <line class="cls-1" x1="134.63" y1="203.54" x2="165.93" y2="203.54"/>
      <polygon class="cls-1" points="253.66 104.54 46.9 103.72 97.16 6.9 151.66 22.54 211.66 6.54 253.66 104.54"/>
    </g>
  </g>
</svg>