<?xml version="1.0" encoding="UTF-8"?>
<svg id="Layer_1" data-name="Layer 1" xmlns="http://www.w3.org/2000/svg" viewBox="0 0 300.56 263.04">
  <defs>
    <style>
      .cls-1, .cls-2 {
        fill: #fff;
      }

      .cls-2, .cls-3 {
        stroke: #fff;
        stroke-miterlimit: 10;
        stroke-width: 11px;
      }

      .cls-3 {
        fill: none;
      }
    </style>
  </defs>
  <g>
    <g>
      <circle class="cls-1" cx="65.54" cy="215.54" r="42"/>
      <path class="cls-1" d="M65.54,179.04c20.13,0,36.5,16.37,36.5,36.5s-16.37,36.5-36.5,36.5-36.5-16.37-36.5-36.5,16.37-36.5,36.5-36.5m0-11c-26.23,0-47.5,21.27-47.5,47.5s21.27,47.5,47.5,47.5,47.5-21.27,47.5-47.5-21.27-47.5-47.5-47.5h0Z"/>
    </g>
    <g>
      <circle class="cls-1" cx="234.54" cy="215.54" r="42"/>
      <path class="cls-1" d="M234.54,179.04c20.13,0,36.5,16.37,36.5,36.5s-16.37,36.5-36.5,36.5-36.5-16.37-36.5-36.5,16.37-36.5,36.5-36.5m0-11c-26.23,0-47.5,21.27-47.5,47.5s21.27,47.5,47.5,47.5,47.5-21.27,47.5-47.5-21.27-47.5-47.5-47.5h0Z"/>
    </g>
  </g>
  <line class="cls-3" y1="136.54" x2="300.56" y2="136.54"/>
  <line class="cls-2" x1="129.54" y1="213.54" x2="170.54" y2="213.54"/>
  <polygon class="cls-2" points="255.78 104.54 49.02 103.72 99.28 6.9 153.78 22.54 213.78 6.54 255.78 104.54"/>
</svg>